<?xml version="1.0" encoding="UTF-8" standalone="no"?>
<!DOCTYPE svg PUBLIC "-//W3C//DTD SVG 1.1//EN"
 "http://www.w3.org/Graphics/SVG/1.1/DTD/svg11.dtd">
<!-- Generated by graphviz version 2.43.0 (0)
 -->
<!-- Title: G Pages: 1 -->
<svg width="1074pt" height="855pt"
 viewBox="0.00 0.00 1074.00 855.00" xmlns="http://www.w3.org/2000/svg" xmlns:xlink="http://www.w3.org/1999/xlink">
<g id="graph0" class="graph" transform="scale(1 1) rotate(0) translate(4 851)">
<title>G</title>
<polygon fill="#1a1a1a" stroke="transparent" points="-4,4 -4,-851 1070,-851 1070,4 -4,4"/>
<g id="clust1" class="cluster">
<title>cluster_rosbag</title>
<polygon fill="#222222" stroke="#444444" points="45,-719 45,-794 680,-794 680,-719 45,-719"/>
<text text-anchor="middle" x="362.5" y="-778.8" font-family="Times,serif" font-size="14.00" fill="#cccccc">📦 Rosbag Source (M3DGR Dynamic01)</text>
</g>
<g id="clust3" class="cluster">
<title>cluster_hub</title>
<polygon fill="#222222" stroke="#444444" points="29,-636 29,-711 470,-711 470,-636 29,-636"/>
<text text-anchor="middle" x="249.5" y="-695.8" font-family="Times,serif" font-size="14.00" fill="#cccccc">🔧 gc_sensor_hub (4 Nodes)</text>
</g>
<g id="clust5" class="cluster">
<title>cluster_canon</title>
<polygon fill="#1a2a1a" stroke="#33aa33" points="8,-553 8,-628 499,-628 499,-553 8,-553"/>
<text text-anchor="middle" x="253.5" y="-612.8" font-family="Times,serif" font-size="14.00" fill="#cccccc">📡 Canonical Topics</text>
</g>
<g id="clust7" class="cluster">
<title>cluster_backend</title>
<polygon fill="#1a1a2a" stroke="#666666" points="49,-154 49,-545 679,-545 679,-154 49,-154"/>
<text text-anchor="middle" x="364" y="-529.8" font-family="Times,serif" font-size="14.00" fill="#cccccc">🧠 gc_backend_node</text>
</g>
<g id="clust12" class="cluster">
<title>cluster_out</title>
<polygon fill="#0a1a2a" stroke="#444466" points="130,-71 130,-146 932,-146 932,-71 130,-71"/>
<text text-anchor="middle" x="531" y="-130.8" font-family="Times,serif" font-size="14.00" fill="#cccccc">📤 Outputs</text>
</g>
<g id="clust16" class="cluster">
<title>cluster_legend</title>
<polygon fill="#111111" stroke="#333333" points="984,-71 984,-462 1058,-462 1058,-71 984,-71"/>
<text text-anchor="middle" x="1021" y="-450" font-family="Times,serif" font-size="10.00" fill="#888888">Legend</text>
</g>
<!-- BAG_VRPN -->
<g id="node1" class="node">
<title>BAG_VRPN</title>
<polygon fill="#2a0e0e" stroke="#ff4444" stroke-dasharray="5,2" points="228.5,-847 135.5,-847 135.5,-806 228.5,-806 228.5,-847"/>
<text text-anchor="middle" x="182" y="-835" font-family="Arial" font-size="10.00" fill="#ffcccc">/vrpn_client_node</text>
<text text-anchor="middle" x="182" y="-824" font-family="Arial" font-size="10.00" fill="#ffcccc">/UGV/pose</text>
<text text-anchor="middle" x="182" y="-813" font-family="Arial" font-size="10.00" fill="#ffcccc">(Ground Truth)</text>
</g>
<!-- BAG_CAM_IMU -->
<g id="node2" class="node">
<title>BAG_CAM_IMU</title>
<polygon fill="#2a0e0e" stroke="#ff4444" stroke-dasharray="5,2" points="484.5,-844.5 413.5,-844.5 413.5,-808.5 484.5,-808.5 484.5,-844.5"/>
<text text-anchor="middle" x="449" y="-824" font-family="Arial" font-size="10.00" fill="#ffcccc">/camera/imu</text>
</g>
<!-- BAG_VRPN&#45;&gt;BAG_CAM_IMU -->
<!-- DEAD_AUDIT -->
<g id="node13" class="node">
<title>DEAD_AUDIT</title>
<polygon fill="#2d004d" stroke="#aa00aa" points="461.5,-680 376.5,-680 376.5,-644 461.5,-644 461.5,-680"/>
<text text-anchor="middle" x="419" y="-659.5" font-family="Arial" font-size="10.00" fill="#ffffff">dead_end_audit</text>
</g>
<!-- BAG_VRPN&#45;&gt;DEAD_AUDIT -->
<g id="edge48" class="edge">
<title>BAG_VRPN&#45;&gt;DEAD_AUDIT</title>
<path fill="none" stroke="#ff4444" stroke-dasharray="5,2" d="M135.11,-815.1C93.75,-805.92 40,-794 40,-794 40,-794 40,-719 40,-719 40,-719 366,-711 366,-711 366,-711 379.23,-699.02 392.47,-687.03"/>
<polygon fill="#ff4444" stroke="#ff4444" points="395.1,-689.37 400.16,-680.06 390.4,-684.18 395.1,-689.37"/>
</g>
<!-- BAG_CAM_COLOR -->
<g id="node3" class="node">
<title>BAG_CAM_COLOR</title>
<polygon fill="#2a0e0e" stroke="#ff4444" stroke-dasharray="5,2" points="487,-763 411,-763 411,-727 487,-727 487,-763"/>
<text text-anchor="middle" x="449" y="-742.5" font-family="Arial" font-size="10.00" fill="#ffcccc">/camera/color</text>
</g>
<!-- BAG_CAM_IMU&#45;&gt;BAG_CAM_COLOR -->
<!-- BAG_CAM_IMU&#45;&gt;DEAD_AUDIT -->
<g id="edge49" class="edge">
<title>BAG_CAM_IMU&#45;&gt;DEAD_AUDIT</title>
<path fill="none" stroke="#ff4444" stroke-dasharray="5,2" d="M484.59,-820.75C550.52,-811.95 685,-794 685,-794 685,-794 685,-719 685,-719 685,-719 549.38,-690.45 471.82,-674.12"/>
<polygon fill="#ff4444" stroke="#ff4444" points="472.24,-670.63 461.74,-672 470.8,-677.48 472.24,-670.63"/>
</g>
<!-- BAG_CAM_DEPTH -->
<g id="node4" class="node">
<title>BAG_CAM_DEPTH</title>
<polygon fill="#2a0e0e" stroke="#ff4444" stroke-dasharray="5,2" points="588.5,-763 509.5,-763 509.5,-727 588.5,-727 588.5,-763"/>
<text text-anchor="middle" x="549" y="-742.5" font-family="Arial" font-size="10.00" fill="#ffcccc">/camera/depth</text>
</g>
<!-- BAG_CAM_COLOR&#45;&gt;BAG_CAM_DEPTH -->
<!-- BAG_CAM_COLOR&#45;&gt;DEAD_AUDIT -->
<g id="edge50" class="edge">
<title>BAG_CAM_COLOR&#45;&gt;DEAD_AUDIT</title>
<path fill="none" stroke="#ff4444" stroke-dasharray="5,2" d="M442.64,-726.82C438.66,-716.08 433.45,-702.03 428.94,-689.84"/>
<polygon fill="#ff4444" stroke="#ff4444" points="432.11,-688.32 425.35,-680.15 425.54,-690.75 432.11,-688.32"/>
</g>
<!-- BAG_AVIA_LIDAR -->
<g id="node5" class="node">
<title>BAG_AVIA_LIDAR</title>
<polygon fill="#2a0e0e" stroke="#ff4444" stroke-dasharray="5,2" points="671.5,-763 610.5,-763 610.5,-727 671.5,-727 671.5,-763"/>
<text text-anchor="middle" x="641" y="-748" font-family="Arial" font-size="10.00" fill="#ffcccc">/livox/avia</text>
<text text-anchor="middle" x="641" y="-737" font-family="Arial" font-size="10.00" fill="#ffcccc">/lidar</text>
</g>
<!-- BAG_CAM_DEPTH&#45;&gt;BAG_AVIA_LIDAR -->
<!-- BAG_CAM_DEPTH&#45;&gt;DEAD_AUDIT -->
<g id="edge51" class="edge">
<title>BAG_CAM_DEPTH&#45;&gt;DEAD_AUDIT</title>
<path fill="none" stroke="#ff4444" stroke-dasharray="5,2" d="M521.43,-726.82C502.13,-714.79 476.14,-698.6 455.17,-685.54"/>
<polygon fill="#ff4444" stroke="#ff4444" points="456.87,-682.47 446.53,-680.15 453.17,-688.41 456.87,-682.47"/>
</g>
<!-- BAG_AVIA_IMU -->
<g id="node6" class="node">
<title>BAG_AVIA_IMU</title>
<polygon fill="#2a0e0e" stroke="#ff4444" stroke-dasharray="5,2" points="388.5,-763 327.5,-763 327.5,-727 388.5,-727 388.5,-763"/>
<text text-anchor="middle" x="358" y="-748" font-family="Arial" font-size="10.00" fill="#ffcccc">/livox/avia</text>
<text text-anchor="middle" x="358" y="-737" font-family="Arial" font-size="10.00" fill="#ffcccc">/imu</text>
</g>
<!-- BAG_AVIA_LIDAR&#45;&gt;BAG_AVIA_IMU -->
<!-- BAG_AVIA_LIDAR&#45;&gt;DEAD_AUDIT -->
<g id="edge52" class="edge">
<title>BAG_AVIA_LIDAR&#45;&gt;DEAD_AUDIT</title>
<path fill="none" stroke="#ff4444" stroke-dasharray="5,2" d="M612.97,-726.91C605.77,-722.52 600,-719 600,-719 600,-719 525.04,-695.81 471.6,-679.27"/>
<polygon fill="#ff4444" stroke="#ff4444" points="472.48,-675.88 461.89,-676.27 470.41,-682.57 472.48,-675.88"/>
</g>
<!-- BAG_ODOM -->
<g id="node7" class="node">
<title>BAG_ODOM</title>
<polygon fill="#0f3d0f" stroke="#00ff00" points="112.5,-763 53.5,-763 53.5,-727 112.5,-727 112.5,-763"/>
<text text-anchor="middle" x="83" y="-748" font-family="Arial" font-size="10.00" fill="#ffffff">/odom</text>
<text text-anchor="middle" x="83" y="-737" font-family="Arial" font-size="10.00" fill="#ffffff">Odometry</text>
</g>
<!-- BAG_AVIA_IMU&#45;&gt;BAG_ODOM -->
<!-- BAG_AVIA_IMU&#45;&gt;DEAD_AUDIT -->
<g id="edge53" class="edge">
<title>BAG_AVIA_IMU&#45;&gt;DEAD_AUDIT</title>
<path fill="none" stroke="#ff4444" stroke-dasharray="5,2" d="M370.94,-726.82C379.35,-715.65 390.46,-700.9 399.88,-688.38"/>
<polygon fill="#ff4444" stroke="#ff4444" points="402.86,-690.25 406.08,-680.15 397.27,-686.04 402.86,-690.25"/>
</g>
<!-- BAG_MID_LIDAR -->
<g id="node8" class="node">
<title>BAG_MID_LIDAR</title>
<polygon fill="#0f3d0f" stroke="#00ff00" points="209,-763 135,-763 135,-727 209,-727 209,-763"/>
<text text-anchor="middle" x="172" y="-748" font-family="Arial" font-size="10.00" fill="#ffffff">/livox/mid360</text>
<text text-anchor="middle" x="172" y="-737" font-family="Arial" font-size="10.00" fill="#ffffff">/lidar</text>
</g>
<!-- BAG_ODOM&#45;&gt;BAG_MID_LIDAR -->
<!-- ODOM_NORM -->
<g id="node11" class="node">
<title>ODOM_NORM</title>
<polygon fill="#0f3d0f" stroke="#00ff00" points="128.5,-680 37.5,-680 37.5,-644 128.5,-644 128.5,-680"/>
<text text-anchor="middle" x="83" y="-659.5" font-family="Arial" font-size="10.00" fill="#ffffff">odom_normalizer</text>
</g>
<!-- BAG_ODOM&#45;&gt;ODOM_NORM -->
<g id="edge45" class="edge">
<title>BAG_ODOM&#45;&gt;ODOM_NORM</title>
<path fill="none" stroke="#00ff00" stroke-width="2" d="M83,-726.82C83,-716.19 83,-702.31 83,-690.2"/>
<polygon fill="#00ff00" stroke="#00ff00" stroke-width="2" points="86.5,-690.15 83,-680.15 79.5,-690.15 86.5,-690.15"/>
</g>
<!-- BAG_MID_IMU -->
<g id="node9" class="node">
<title>BAG_MID_IMU</title>
<polygon fill="#0f3d0f" stroke="#00ff00" points="305,-763 231,-763 231,-727 305,-727 305,-763"/>
<text text-anchor="middle" x="268" y="-748" font-family="Arial" font-size="10.00" fill="#ffffff">/livox/mid360</text>
<text text-anchor="middle" x="268" y="-737" font-family="Arial" font-size="10.00" fill="#ffffff">/imu</text>
</g>
<!-- BAG_MID_LIDAR&#45;&gt;BAG_MID_IMU -->
<!-- LIVOX_CONV -->
<g id="node10" class="node">
<title>LIVOX_CONV</title>
<polygon fill="#0f3d0f" stroke="#00ff00" points="249.5,-680 150.5,-680 150.5,-644 249.5,-644 249.5,-680"/>
<text text-anchor="middle" x="200" y="-665" font-family="Arial" font-size="10.00" fill="#ffffff">livox_converter</text>
<text text-anchor="middle" x="200" y="-654" font-family="Arial" font-size="10.00" fill="#ffffff">CustomMsg→PC2</text>
</g>
<!-- BAG_MID_LIDAR&#45;&gt;LIVOX_CONV -->
<g id="edge46" class="edge">
<title>BAG_MID_LIDAR&#45;&gt;LIVOX_CONV</title>
<path fill="none" stroke="#00ff00" stroke-width="2" d="M177.94,-726.82C181.65,-716.08 186.51,-702.03 190.72,-689.84"/>
<polygon fill="#00ff00" stroke="#00ff00" stroke-width="2" points="194.11,-690.75 194.07,-680.15 187.5,-688.46 194.11,-690.75"/>
</g>
<!-- IMU_NORM -->
<g id="node12" class="node">
<title>IMU_NORM</title>
<polygon fill="#0f3d0f" stroke="#00ff00" points="354.5,-680 271.5,-680 271.5,-644 354.5,-644 354.5,-680"/>
<text text-anchor="middle" x="313" y="-659.5" font-family="Arial" font-size="10.00" fill="#ffffff">imu_normalizer</text>
</g>
<!-- BAG_MID_IMU&#45;&gt;IMU_NORM -->
<g id="edge47" class="edge">
<title>BAG_MID_IMU&#45;&gt;IMU_NORM</title>
<path fill="none" stroke="#00ff00" stroke-width="2" d="M277.54,-726.82C283.63,-715.87 291.63,-701.46 298.5,-689.11"/>
<polygon fill="#00ff00" stroke="#00ff00" stroke-width="2" points="301.67,-690.59 303.47,-680.15 295.55,-687.2 301.67,-690.59"/>
</g>
<!-- LIVOX_CONV&#45;&gt;IMU_NORM -->
<!-- CAN_LIDAR -->
<g id="node15" class="node">
<title>CAN_LIDAR</title>
<polygon fill="#0f3d0f" stroke="#00ff00" points="254,-597 134,-597 134,-561 254,-561 254,-597"/>
<text text-anchor="middle" x="194" y="-582" font-family="Arial" font-size="10.00" fill="#ffffff">/gc/sensors/lidar_points</text>
<text text-anchor="middle" x="194" y="-571" font-family="Arial" font-size="10.00" fill="#ffffff">PointCloud2</text>
</g>
<!-- LIVOX_CONV&#45;&gt;CAN_LIDAR -->
<g id="edge55" class="edge">
<title>LIVOX_CONV&#45;&gt;CAN_LIDAR</title>
<path fill="none" stroke="#00ff00" stroke-width="2" d="M198.73,-643.82C197.94,-633.19 196.91,-619.31 196.02,-607.2"/>
<polygon fill="#00ff00" stroke="#00ff00" stroke-width="2" points="199.5,-606.87 195.27,-597.15 192.52,-607.38 199.5,-606.87"/>
</g>
<!-- ODOM_NORM&#45;&gt;LIVOX_CONV -->
<!-- CAN_ODOM -->
<g id="node14" class="node">
<title>CAN_ODOM</title>
<polygon fill="#0f3d0f" stroke="#00ff00" points="111.5,-597 16.5,-597 16.5,-561 111.5,-561 111.5,-597"/>
<text text-anchor="middle" x="64" y="-582" font-family="Arial" font-size="10.00" fill="#ffffff">/gc/sensors/odom</text>
<text text-anchor="middle" x="64" y="-571" font-family="Arial" font-size="10.00" fill="#ffffff">Odometry</text>
</g>
<!-- ODOM_NORM&#45;&gt;CAN_ODOM -->
<g id="edge54" class="edge">
<title>ODOM_NORM&#45;&gt;CAN_ODOM</title>
<path fill="none" stroke="#00ff00" stroke-width="2" d="M78.97,-643.82C76.48,-633.19 73.22,-619.31 70.38,-607.2"/>
<polygon fill="#00ff00" stroke="#00ff00" stroke-width="2" points="73.71,-606.09 68.02,-597.15 66.9,-607.69 73.71,-606.09"/>
</g>
<!-- IMU_NORM&#45;&gt;DEAD_AUDIT -->
<!-- CAN_IMU -->
<g id="node16" class="node">
<title>CAN_IMU</title>
<polygon fill="#0f3d0f" stroke="#00ff00" points="362,-597 276,-597 276,-561 362,-561 362,-597"/>
<text text-anchor="middle" x="319" y="-582" font-family="Arial" font-size="10.00" fill="#ffffff">/gc/sensors/imu</text>
<text text-anchor="middle" x="319" y="-571" font-family="Arial" font-size="10.00" fill="#ffffff">Imu</text>
</g>
<!-- IMU_NORM&#45;&gt;CAN_IMU -->
<g id="edge56" class="edge">
<title>IMU_NORM&#45;&gt;CAN_IMU</title>
<path fill="none" stroke="#00ff00" stroke-width="2" d="M314.27,-643.82C315.06,-633.19 316.09,-619.31 316.98,-607.2"/>
<polygon fill="#00ff00" stroke="#00ff00" stroke-width="2" points="320.48,-607.38 317.73,-597.15 313.5,-606.87 320.48,-607.38"/>
</g>
<!-- CAN_DEAD -->
<g id="node17" class="node">
<title>CAN_DEAD</title>
<polygon fill="#2d004d" stroke="#aa00aa" points="491.5,-597 384.5,-597 384.5,-561 491.5,-561 491.5,-597"/>
<text text-anchor="middle" x="438" y="-582" font-family="Arial" font-size="10.00" fill="#ffffff">/gc/dead_end_status</text>
<text text-anchor="middle" x="438" y="-571" font-family="Arial" font-size="10.00" fill="#ffffff">JSON</text>
</g>
<!-- DEAD_AUDIT&#45;&gt;CAN_DEAD -->
<g id="edge57" class="edge">
<title>DEAD_AUDIT&#45;&gt;CAN_DEAD</title>
<path fill="none" stroke="#aa00aa" stroke-width="2" d="M423.03,-643.82C425.52,-633.19 428.78,-619.31 431.62,-607.2"/>
<polygon fill="#aa00aa" stroke="#aa00aa" stroke-width="2" points="435.1,-607.69 433.98,-597.15 428.29,-606.09 435.1,-607.69"/>
</g>
<!-- CAN_ODOM&#45;&gt;CAN_LIDAR -->
<!-- S01 -->
<g id="node19" class="node">
<title>S01</title>
<polygon fill="#333333" stroke="#aaaaaa" points="127,-435 57,-435 57,-399 127,-399 127,-435"/>
<text text-anchor="middle" x="92" y="-420" font-family="Arial" font-size="10.00" fill="#ffffff">S01</text>
<text text-anchor="middle" x="92" y="-409" font-family="Arial" font-size="10.00" fill="#ffffff">PointBudget</text>
</g>
<!-- CAN_ODOM&#45;&gt;S01 -->
<g id="edge58" class="edge">
<title>CAN_ODOM&#45;&gt;S01</title>
<path fill="none" stroke="#00ff00" stroke-width="2" d="M67,-560.88C71.83,-533.23 81.41,-478.54 87.2,-445.42"/>
<polygon fill="#00ff00" stroke="#00ff00" stroke-width="2" points="90.66,-445.94 88.94,-435.48 83.77,-444.73 90.66,-445.94"/>
</g>
<!-- CAN_LIDAR&#45;&gt;CAN_IMU -->
<!-- CAN_LIDAR&#45;&gt;S01 -->
<g id="edge59" class="edge">
<title>CAN_LIDAR&#45;&gt;S01</title>
<path fill="none" stroke="#00ff00" stroke-width="2" d="M183.08,-560.88C165.23,-532.88 129.68,-477.11 108.66,-444.14"/>
<polygon fill="#00ff00" stroke="#00ff00" stroke-width="2" points="111.47,-442.04 103.15,-435.48 105.57,-445.8 111.47,-442.04"/>
</g>
<!-- CAN_IMU&#45;&gt;CAN_DEAD -->
<!-- IMU_BUF -->
<g id="node18" class="node">
<title>IMU_BUF</title>
<polygon fill="#1e1e1e" stroke="#666666" points="305,-514 241,-514 241,-478 305,-478 305,-514"/>
<text text-anchor="middle" x="273" y="-499" font-family="Arial" font-size="10.00" fill="#aaaaaa">IMU Buffer</text>
<text text-anchor="middle" x="273" y="-488" font-family="Arial" font-size="10.00" fill="#aaaaaa">200 msgs</text>
</g>
<!-- CAN_IMU&#45;&gt;IMU_BUF -->
<g id="edge60" class="edge">
<title>CAN_IMU&#45;&gt;IMU_BUF</title>
<path fill="none" stroke="#00ff00" stroke-width="2" d="M309.24,-560.82C303.02,-549.87 294.84,-535.46 287.83,-523.11"/>
<polygon fill="#00ff00" stroke="#00ff00" stroke-width="2" points="290.72,-521.12 282.74,-514.15 284.64,-524.58 290.72,-521.12"/>
</g>
<!-- WIRING -->
<g id="node50" class="node">
<title>WIRING</title>
<polygon fill="#2d004d" stroke="#aa00aa" points="949.5,-36 838.5,-36 838.5,0 949.5,0 949.5,-36"/>
<text text-anchor="middle" x="894" y="-21" font-family="Arial" font-size="10.00" fill="#ffffff">wiring_auditor</text>
<text text-anchor="middle" x="894" y="-10" font-family="Arial" font-size="10.00" fill="#ffffff">End&#45;of&#45;Run Summary</text>
</g>
<!-- CAN_DEAD&#45;&gt;WIRING -->
<g id="edge95" class="edge">
<title>CAN_DEAD&#45;&gt;WIRING</title>
<path fill="none" stroke="#aa00aa" stroke-width="1.5" d="M491.68,-570.8C564.06,-561.09 684,-545 684,-545 684,-545 958,-418 958,-418 958,-418 958,-418 958,-179 958,-179 937,-71 937,-71 937,-71 925.55,-57.16 914.47,-43.76"/>
<polygon fill="#aa00aa" stroke="#aa00aa" stroke-width="1.5" points="917.15,-41.5 908.08,-36.03 911.76,-45.96 917.15,-41.5"/>
</g>
<!-- S03 -->
<g id="node21" class="node">
<title>S03</title>
<polygon fill="#333333" stroke="#aaaaaa" points="279,-435 225,-435 225,-399 279,-399 279,-435"/>
<text text-anchor="middle" x="252" y="-420" font-family="Arial" font-size="10.00" fill="#ffffff">S03</text>
<text text-anchor="middle" x="252" y="-409" font-family="Arial" font-size="10.00" fill="#ffffff">Deskew</text>
</g>
<!-- IMU_BUF&#45;&gt;S03 -->
<g id="edge61" class="edge">
<title>IMU_BUF&#45;&gt;S03</title>
<path fill="none" stroke="#666666" stroke-dasharray="5,2" d="M268.34,-477.91C265.7,-468.24 262.34,-455.93 259.36,-444.98"/>
<polygon fill="#666666" stroke="#666666" points="262.66,-443.77 256.65,-435.04 255.9,-445.61 262.66,-443.77"/>
</g>
<!-- S02 -->
<g id="node20" class="node">
<title>S02</title>
<polygon fill="#333333" stroke="#aaaaaa" points="203,-435 149,-435 149,-399 203,-399 203,-435"/>
<text text-anchor="middle" x="176" y="-420" font-family="Arial" font-size="10.00" fill="#ffffff">S02</text>
<text text-anchor="middle" x="176" y="-409" font-family="Arial" font-size="10.00" fill="#ffffff">Predict</text>
</g>
<!-- S01&#45;&gt;S02 -->
<!-- S01&#45;&gt;S02 -->
<g id="edge62" class="edge">
<title>S01&#45;&gt;S02</title>
<path fill="none" stroke="#aaaaaa" stroke-width="1.5" d="M127.07,-435C130.56,-435 134.84,-435 138.66,-434.97"/>
<polygon fill="#aaaaaa" stroke="#aaaaaa" stroke-width="1.5" points="138.84,-438.46 148.69,-434.56 138.56,-431.47 138.84,-438.46"/>
</g>
<!-- S02&#45;&gt;S03 -->
<!-- S02&#45;&gt;S03 -->
<g id="edge63" class="edge">
<title>S02&#45;&gt;S03</title>
<path fill="none" stroke="#aaaaaa" stroke-width="1.5" d="M203.32,-435C205.78,-435 210.15,-435 214.46,-435"/>
<polygon fill="#aaaaaa" stroke="#aaaaaa" stroke-width="1.5" points="214.76,-438.5 224.76,-435 214.76,-431.5 214.76,-438.5"/>
</g>
<!-- S04 -->
<g id="node22" class="node">
<title>S04</title>
<polygon fill="#333333" stroke="#aaaaaa" points="355,-435 301,-435 301,-399 355,-399 355,-435"/>
<text text-anchor="middle" x="328" y="-420" font-family="Arial" font-size="10.00" fill="#ffffff">S04</text>
<text text-anchor="middle" x="328" y="-409" font-family="Arial" font-size="10.00" fill="#ffffff">BinSoft</text>
</g>
<!-- S03&#45;&gt;S04 -->
<!-- S03&#45;&gt;S04 -->
<g id="edge64" class="edge">
<title>S03&#45;&gt;S04</title>
<path fill="none" stroke="#aaaaaa" stroke-width="1.5" d="M279.32,-435C281.78,-435 286.15,-435 290.46,-435"/>
<polygon fill="#aaaaaa" stroke="#aaaaaa" stroke-width="1.5" points="290.76,-438.5 300.76,-435 290.76,-431.5 290.76,-438.5"/>
</g>
<!-- S05 -->
<g id="node23" class="node">
<title>S05</title>
<polygon fill="#333333" stroke="#aaaaaa" points="431,-435 377,-435 377,-399 431,-399 431,-435"/>
<text text-anchor="middle" x="404" y="-420" font-family="Arial" font-size="10.00" fill="#ffffff">S05</text>
<text text-anchor="middle" x="404" y="-409" font-family="Arial" font-size="10.00" fill="#ffffff">ScanBin</text>
</g>
<!-- S04&#45;&gt;S05 -->
<!-- S04&#45;&gt;S05 -->
<g id="edge65" class="edge">
<title>S04&#45;&gt;S05</title>
<path fill="none" stroke="#aaaaaa" stroke-width="1.5" d="M355.32,-435C357.78,-435 362.15,-435 366.46,-435"/>
<polygon fill="#aaaaaa" stroke="#aaaaaa" stroke-width="1.5" points="366.76,-438.5 376.76,-435 366.76,-431.5 366.76,-438.5"/>
</g>
<!-- S06 -->
<g id="node24" class="node">
<title>S06</title>
<polygon fill="#333333" stroke="#aaaaaa" points="507,-435 453,-435 453,-399 507,-399 507,-435"/>
<text text-anchor="middle" x="480" y="-420" font-family="Arial" font-size="10.00" fill="#ffffff">S06</text>
<text text-anchor="middle" x="480" y="-409" font-family="Arial" font-size="10.00" fill="#ffffff">Kappa</text>
</g>
<!-- S05&#45;&gt;S06 -->
<!-- S05&#45;&gt;S06 -->
<g id="edge66" class="edge">
<title>S05&#45;&gt;S06</title>
<path fill="none" stroke="#aaaaaa" stroke-width="1.5" d="M431.32,-435C433.78,-435 438.15,-435 442.46,-435"/>
<polygon fill="#aaaaaa" stroke="#aaaaaa" stroke-width="1.5" points="442.76,-438.5 452.76,-435 442.76,-431.5 442.76,-438.5"/>
</g>
<!-- S07 -->
<g id="node25" class="node">
<title>S07</title>
<polygon fill="#333333" stroke="#aaaaaa" points="583,-435 529,-435 529,-399 583,-399 583,-435"/>
<text text-anchor="middle" x="556" y="-420" font-family="Arial" font-size="10.00" fill="#ffffff">S07</text>
<text text-anchor="middle" x="556" y="-409" font-family="Arial" font-size="10.00" fill="#ffffff">Wahba</text>
</g>
<!-- S06&#45;&gt;S07 -->
<!-- S06&#45;&gt;S07 -->
<g id="edge67" class="edge">
<title>S06&#45;&gt;S07</title>
<path fill="none" stroke="#aaaaaa" stroke-width="1.5" d="M507.32,-435C509.78,-435 514.15,-435 518.46,-435"/>
<polygon fill="#aaaaaa" stroke="#aaaaaa" stroke-width="1.5" points="518.76,-438.5 528.76,-435 518.76,-431.5 518.76,-438.5"/>
</g>
<!-- S08 -->
<g id="node26" class="node">
<title>S08</title>
<polygon fill="#333333" stroke="#aaaaaa" points="670.5,-435 605.5,-435 605.5,-399 670.5,-399 670.5,-435"/>
<text text-anchor="middle" x="638" y="-420" font-family="Arial" font-size="10.00" fill="#ffffff">S08</text>
<text text-anchor="middle" x="638" y="-409" font-family="Arial" font-size="10.00" fill="#ffffff">Translation</text>
</g>
<!-- S07&#45;&gt;S08 -->
<!-- S07&#45;&gt;S08 -->
<g id="edge68" class="edge">
<title>S07&#45;&gt;S08</title>
<path fill="none" stroke="#aaaaaa" stroke-width="1.5" d="M583.03,-434.8C583.23,-434.93 583.33,-435 583.33,-435 583.33,-435 589.13,-435 595.38,-435"/>
<polygon fill="#aaaaaa" stroke="#aaaaaa" stroke-width="1.5" points="595.4,-438.5 605.4,-435 595.4,-431.5 595.4,-438.5"/>
</g>
<!-- S09A -->
<g id="node27" class="node">
<title>S09A</title>
<polygon fill="#3a3a3a" stroke="#88cc88" points="318,-356 256,-356 256,-320 318,-320 318,-356"/>
<text text-anchor="middle" x="287" y="-341" font-family="Arial" font-size="10.00" fill="#ffffff">S09a</text>
<text text-anchor="middle" x="287" y="-330" font-family="Arial" font-size="10.00" fill="#ffffff">OdomEvid</text>
</g>
<!-- S08&#45;&gt;S09A -->
<g id="edge69" class="edge">
<title>S08&#45;&gt;S09A</title>
<path fill="none" stroke="#aaaaaa" stroke-width="1.5" d="M605.1,-403.29C598.74,-400.83 594,-399 594,-399 594,-399 330,-356 330,-356 330,-356 329.16,-355.67 327.72,-355.1"/>
<polygon fill="#aaaaaa" stroke="#aaaaaa" stroke-width="1.5" points="328.84,-351.78 318.25,-351.35 326.26,-358.29 328.84,-351.78"/>
</g>
<!-- S09B -->
<g id="node28" class="node">
<title>S09B</title>
<polygon fill="#3a3a3a" stroke="#88cc88" points="403.5,-356 340.5,-356 340.5,-320 403.5,-320 403.5,-356"/>
<text text-anchor="middle" x="372" y="-341" font-family="Arial" font-size="10.00" fill="#ffffff">S09b</text>
<text text-anchor="middle" x="372" y="-330" font-family="Arial" font-size="10.00" fill="#ffffff">IMU&#45;Accel</text>
</g>
<!-- S08&#45;&gt;S09B -->
<g id="edge70" class="edge">
<title>S08&#45;&gt;S09B</title>
<path fill="none" stroke="#aaaaaa" stroke-width="1.5" d="M605.1,-403.29C598.74,-400.83 594,-399 594,-399 594,-399 415,-356 415,-356 415,-356 414.32,-355.73 413.12,-355.26"/>
<polygon fill="#aaaaaa" stroke="#aaaaaa" stroke-width="1.5" points="414.29,-351.96 403.7,-351.53 411.72,-358.46 414.29,-351.96"/>
</g>
<!-- S09C -->
<g id="node29" class="node">
<title>S09C</title>
<polygon fill="#3a3a3a" stroke="#88cc88" points="484.5,-356 425.5,-356 425.5,-320 484.5,-320 484.5,-356"/>
<text text-anchor="middle" x="455" y="-341" font-family="Arial" font-size="10.00" fill="#ffffff">S09c</text>
<text text-anchor="middle" x="455" y="-330" font-family="Arial" font-size="10.00" fill="#ffffff">IMU&#45;Gyro</text>
</g>
<!-- S08&#45;&gt;S09C -->
<g id="edge71" class="edge">
<title>S08&#45;&gt;S09C</title>
<path fill="none" stroke="#aaaaaa" stroke-width="1.5" d="M605.28,-402.23C574.12,-389.12 527.19,-369.38 494.08,-355.44"/>
<polygon fill="#aaaaaa" stroke="#aaaaaa" stroke-width="1.5" points="495.28,-352.15 484.71,-351.5 492.57,-358.6 495.28,-352.15"/>
</g>
<!-- S09D -->
<g id="node30" class="node">
<title>S09D</title>
<polygon fill="#3a3a3a" stroke="#88cc88" points="563.5,-356 506.5,-356 506.5,-320 563.5,-320 563.5,-356"/>
<text text-anchor="middle" x="535" y="-341" font-family="Arial" font-size="10.00" fill="#ffffff">S09d</text>
<text text-anchor="middle" x="535" y="-330" font-family="Arial" font-size="10.00" fill="#ffffff">LidarEvid</text>
</g>
<!-- S08&#45;&gt;S09D -->
<g id="edge72" class="edge">
<title>S08&#45;&gt;S09D</title>
<path fill="none" stroke="#aaaaaa" stroke-width="1.5" d="M615.14,-398.91C600.74,-388.14 581.96,-374.1 566.19,-362.32"/>
<polygon fill="#aaaaaa" stroke="#aaaaaa" stroke-width="1.5" points="567.9,-359.23 557.8,-356.04 563.71,-364.83 567.9,-359.23"/>
</g>
<!-- S09A&#45;&gt;S09B -->
<!-- S10 -->
<g id="node31" class="node">
<title>S10</title>
<polygon fill="#333333" stroke="#aaaaaa" points="220.5,-277 149.5,-277 149.5,-241 220.5,-241 220.5,-277"/>
<text text-anchor="middle" x="185" y="-262" font-family="Arial" font-size="10.00" fill="#ffffff">S10</text>
<text text-anchor="middle" x="185" y="-251" font-family="Arial" font-size="10.00" fill="#ffffff">FusionScale</text>
</g>
<!-- S09A&#45;&gt;S10 -->
<g id="edge73" class="edge">
<title>S09A&#45;&gt;S10</title>
<path fill="none" stroke="#88cc88" stroke-width="1.5" d="M264.36,-319.91C250.1,-309.14 231.5,-295.1 215.89,-283.32"/>
<polygon fill="#88cc88" stroke="#88cc88" stroke-width="1.5" points="217.66,-280.27 207.57,-277.04 213.45,-285.86 217.66,-280.27"/>
</g>
<!-- S09B&#45;&gt;S09C -->
<!-- S09B&#45;&gt;S10 -->
<g id="edge74" class="edge">
<title>S09B&#45;&gt;S10</title>
<path fill="none" stroke="#88cc88" stroke-width="1.5" d="M340.28,-323.94C309.99,-311.47 264.04,-292.55 229.98,-278.52"/>
<polygon fill="#88cc88" stroke="#88cc88" stroke-width="1.5" points="231.29,-275.28 220.71,-274.71 228.63,-281.75 231.29,-275.28"/>
</g>
<!-- S09C&#45;&gt;S09D -->
<!-- S09C&#45;&gt;S10 -->
<g id="edge75" class="edge">
<title>S09C&#45;&gt;S10</title>
<path fill="none" stroke="#88cc88" stroke-width="1.5" d="M425.09,-324.29C419.31,-321.83 415,-320 415,-320 415,-320 232,-277 232,-277 232,-277 231.32,-276.75 230.13,-276.32"/>
<polygon fill="#88cc88" stroke="#88cc88" stroke-width="1.5" points="231.22,-272.99 220.62,-272.88 228.84,-279.58 231.22,-272.99"/>
</g>
<!-- S09D&#45;&gt;S10 -->
<g id="edge76" class="edge">
<title>S09D&#45;&gt;S10</title>
<path fill="none" stroke="#88cc88" stroke-width="1.5" d="M506.25,-324.47C500.4,-321.92 496,-320 496,-320 496,-320 232,-277 232,-277 232,-277 231.32,-276.75 230.13,-276.32"/>
<polygon fill="#88cc88" stroke="#88cc88" stroke-width="1.5" points="231.22,-272.99 220.62,-272.88 228.84,-279.58 231.22,-272.99"/>
</g>
<!-- S11 -->
<g id="node32" class="node">
<title>S11</title>
<polygon fill="#333333" stroke="#aaaaaa" points="305,-277 243,-277 243,-241 305,-241 305,-277"/>
<text text-anchor="middle" x="274" y="-262" font-family="Arial" font-size="10.00" fill="#ffffff">S11</text>
<text text-anchor="middle" x="274" y="-251" font-family="Arial" font-size="10.00" fill="#ffffff">InfoFusion</text>
</g>
<!-- S10&#45;&gt;S11 -->
<!-- S10&#45;&gt;S11 -->
<g id="edge77" class="edge">
<title>S10&#45;&gt;S11</title>
<path fill="none" stroke="#aaaaaa" stroke-width="1.5" d="M220.67,-277C224.08,-277 228.47,-277 232.54,-277"/>
<polygon fill="#aaaaaa" stroke="#aaaaaa" stroke-width="1.5" points="232.89,-280.5 242.89,-277 232.89,-273.5 232.89,-280.5"/>
</g>
<!-- S12 -->
<g id="node33" class="node">
<title>S12</title>
<polygon fill="#333333" stroke="#aaaaaa" points="398.5,-277 327.5,-277 327.5,-241 398.5,-241 398.5,-277"/>
<text text-anchor="middle" x="363" y="-262" font-family="Arial" font-size="10.00" fill="#ffffff">S12</text>
<text text-anchor="middle" x="363" y="-251" font-family="Arial" font-size="10.00" fill="#ffffff">PoseUpdate</text>
</g>
<!-- S11&#45;&gt;S12 -->
<!-- S11&#45;&gt;S12 -->
<g id="edge78" class="edge">
<title>S11&#45;&gt;S12</title>
<path fill="none" stroke="#aaaaaa" stroke-width="1.5" d="M305.26,-277C307.6,-277 312.2,-277 317.02,-277"/>
<polygon fill="#aaaaaa" stroke="#aaaaaa" stroke-width="1.5" points="317.1,-280.5 327.1,-277 317.1,-273.5 317.1,-280.5"/>
</g>
<!-- S13 -->
<g id="node34" class="node">
<title>S13</title>
<polygon fill="#333333" stroke="#aaaaaa" points="477.5,-277 420.5,-277 420.5,-241 477.5,-241 477.5,-277"/>
<text text-anchor="middle" x="449" y="-262" font-family="Arial" font-size="10.00" fill="#ffffff">S13</text>
<text text-anchor="middle" x="449" y="-251" font-family="Arial" font-size="10.00" fill="#ffffff">PoseCov</text>
</g>
<!-- S12&#45;&gt;S13 -->
<!-- S12&#45;&gt;S13 -->
<g id="edge79" class="edge">
<title>S12&#45;&gt;S13</title>
<path fill="none" stroke="#aaaaaa" stroke-width="1.5" d="M398.61,-277C402.05,-277 406.28,-277 410.1,-277"/>
<polygon fill="#aaaaaa" stroke="#aaaaaa" stroke-width="1.5" points="410.43,-280.5 420.42,-276.95 410.4,-273.5 410.43,-280.5"/>
</g>
<!-- S14 -->
<g id="node35" class="node">
<title>S14</title>
<polygon fill="#333333" stroke="#aaaaaa" points="566,-277 500,-277 500,-241 566,-241 566,-277"/>
<text text-anchor="middle" x="533" y="-262" font-family="Arial" font-size="10.00" fill="#ffffff">S14</text>
<text text-anchor="middle" x="533" y="-251" font-family="Arial" font-size="10.00" fill="#ffffff">AnchorDrift</text>
</g>
<!-- S13&#45;&gt;S14 -->
<!-- S13&#45;&gt;S14 -->
<g id="edge80" class="edge">
<title>S13&#45;&gt;S14</title>
<path fill="none" stroke="#aaaaaa" stroke-width="1.5" d="M477.69,-277C479.45,-277 484.33,-277 489.48,-277"/>
<polygon fill="#aaaaaa" stroke="#aaaaaa" stroke-width="1.5" points="489.53,-280.5 499.53,-277 489.53,-273.5 489.53,-280.5"/>
</g>
<!-- S15 -->
<g id="node36" class="node">
<title>S15</title>
<polygon fill="#333333" stroke="#aaaaaa" points="648,-277 588,-277 588,-241 648,-241 648,-277"/>
<text text-anchor="middle" x="618" y="-262" font-family="Arial" font-size="10.00" fill="#ffffff">S15</text>
<text text-anchor="middle" x="618" y="-251" font-family="Arial" font-size="10.00" fill="#ffffff">HypoBary</text>
</g>
<!-- S14&#45;&gt;S15 -->
<!-- S14&#45;&gt;S15 -->
<g id="edge81" class="edge">
<title>S14&#45;&gt;S15</title>
<path fill="none" stroke="#aaaaaa" stroke-width="1.5" d="M566.01,-277C569.22,-277 573.62,-277 577.77,-277"/>
<polygon fill="#aaaaaa" stroke="#aaaaaa" stroke-width="1.5" points="577.93,-280.5 587.93,-277 577.93,-273.5 577.93,-280.5"/>
</g>
<!-- ST_BELIEF -->
<g id="node37" class="node">
<title>ST_BELIEF</title>
<polygon fill="#1e1e1e" stroke="#666666" points="671.5,-198 564.5,-198 564.5,-162 671.5,-162 671.5,-198"/>
<text text-anchor="middle" x="618" y="-183" font-family="Arial" font-size="10.00" fill="#ffffff">BeliefGaussianInfo</text>
<text text-anchor="middle" x="618" y="-172" font-family="Arial" font-size="10.00" fill="#ffffff">22D × 8 Hypotheses</text>
</g>
<!-- S15&#45;&gt;ST_BELIEF -->
<g id="edge82" class="edge">
<title>S15&#45;&gt;ST_BELIEF</title>
<path fill="none" stroke="#aaaaaa" stroke-width="2" d="M618,-240.91C618,-231.34 618,-219.18 618,-208.32"/>
<polygon fill="#aaaaaa" stroke="#aaaaaa" stroke-width="2" points="621.5,-208.04 618,-198.04 614.5,-208.04 621.5,-208.04"/>
</g>
<!-- ST_MAP -->
<g id="node38" class="node">
<title>ST_MAP</title>
<polygon fill="#1e1e1e" stroke="#666666" points="219.5,-198 160.5,-198 160.5,-162 219.5,-162 219.5,-198"/>
<text text-anchor="middle" x="190" y="-183" font-family="Arial" font-size="10.00" fill="#ffffff">MapStats</text>
<text text-anchor="middle" x="190" y="-172" font-family="Arial" font-size="10.00" fill="#ffffff">48 Bins</text>
</g>
<!-- S15&#45;&gt;ST_MAP -->
<g id="edge83" class="edge">
<title>S15&#45;&gt;ST_MAP</title>
<path fill="none" stroke="#aaaaaa" stroke-width="2" d="M587.77,-245.47C581.63,-242.92 577,-241 577,-241 577,-241 231,-198 231,-198 231,-198 230.32,-197.72 229.13,-197.23"/>
<polygon fill="#aaaaaa" stroke="#aaaaaa" stroke-width="2" points="230.37,-193.95 219.8,-193.35 227.69,-200.42 230.37,-193.95"/>
</g>
<!-- ST_PROC -->
<g id="node39" class="node">
<title>ST_PROC</title>
<polygon fill="#1e1e1e" stroke="#666666" points="332.5,-198 241.5,-198 241.5,-162 332.5,-162 332.5,-198"/>
<text text-anchor="middle" x="287" y="-177.5" font-family="Arial" font-size="10.00" fill="#aaaaaa">ProcessNoiseIW</text>
</g>
<!-- S15&#45;&gt;ST_PROC -->
<g id="edge84" class="edge">
<title>S15&#45;&gt;ST_PROC</title>
<path fill="none" stroke="#666666" stroke-dasharray="5,2" d="M587.77,-245.47C581.63,-242.92 577,-241 577,-241 577,-241 344,-198 344,-198 344,-198 343.45,-197.84 342.46,-197.54"/>
<polygon fill="#666666" stroke="#666666" points="343.32,-194.15 332.74,-194.64 341.32,-200.85 343.32,-194.15"/>
</g>
<!-- ST_MEAS -->
<g id="node40" class="node">
<title>ST_MEAS</title>
<polygon fill="#1e1e1e" stroke="#666666" points="433.5,-198 354.5,-198 354.5,-162 433.5,-162 433.5,-198"/>
<text text-anchor="middle" x="394" y="-177.5" font-family="Arial" font-size="10.00" fill="#aaaaaa">MeasNoiseIW</text>
</g>
<!-- S15&#45;&gt;ST_MEAS -->
<g id="edge85" class="edge">
<title>S15&#45;&gt;ST_MEAS</title>
<path fill="none" stroke="#666666" stroke-dasharray="5,2" d="M587.77,-245.47C581.63,-242.92 577,-241 577,-241 577,-241 445,-198 445,-198 445,-198 444.44,-197.81 443.44,-197.48"/>
<polygon fill="#666666" stroke="#666666" points="444.28,-194.07 433.68,-194.23 442.06,-200.71 444.28,-194.07"/>
</g>
<!-- ST_BUCKET -->
<g id="node41" class="node">
<title>ST_BUCKET</title>
<polygon fill="#1e1e1e" stroke="#666666" points="542,-198 456,-198 456,-162 542,-162 542,-198"/>
<text text-anchor="middle" x="499" y="-177.5" font-family="Arial" font-size="10.00" fill="#aaaaaa">BucketNoiseIW</text>
</g>
<!-- S15&#45;&gt;ST_BUCKET -->
<g id="edge86" class="edge">
<title>S15&#45;&gt;ST_BUCKET</title>
<path fill="none" stroke="#666666" stroke-dasharray="5,2" d="M591.59,-240.91C574.57,-229.9 552.24,-215.45 533.78,-203.51"/>
<polygon fill="#666666" stroke="#666666" points="535.63,-200.54 525.34,-198.04 531.83,-206.41 535.63,-200.54"/>
</g>
<!-- ST_BELIEF&#45;&gt;ST_MAP -->
<!-- OUT_STATE -->
<g id="node42" class="node">
<title>OUT_STATE</title>
<polygon fill="#003366" stroke="#4488ff" points="745.5,-115 686.5,-115 686.5,-79 745.5,-79 745.5,-115"/>
<text text-anchor="middle" x="716" y="-100" font-family="Arial" font-size="10.00" fill="#ffffff">/gc/state</text>
<text text-anchor="middle" x="716" y="-89" font-family="Arial" font-size="10.00" fill="#ffffff">Odometry</text>
</g>
<!-- ST_BELIEF&#45;&gt;OUT_STATE -->
<g id="edge87" class="edge">
<title>ST_BELIEF&#45;&gt;OUT_STATE</title>
<path fill="none" stroke="#4488ff" stroke-width="2" d="M647.5,-161.92C661.41,-153.87 675,-146 675,-146 675,-146 684.85,-134.46 694.9,-122.7"/>
<polygon fill="#4488ff" stroke="#4488ff" stroke-width="2" points="697.6,-124.94 701.43,-115.06 692.27,-120.39 697.6,-124.94"/>
</g>
<!-- OUT_TRAJ -->
<g id="node43" class="node">
<title>OUT_TRAJ</title>
<polygon fill="#003366" stroke="#4488ff" points="842,-115 768,-115 768,-79 842,-79 842,-115"/>
<text text-anchor="middle" x="805" y="-100" font-family="Arial" font-size="10.00" fill="#ffffff">/gc/trajectory</text>
<text text-anchor="middle" x="805" y="-89" font-family="Arial" font-size="10.00" fill="#ffffff">Path</text>
</g>
<!-- ST_BELIEF&#45;&gt;OUT_TRAJ -->
<g id="edge88" class="edge">
<title>ST_BELIEF&#45;&gt;OUT_TRAJ</title>
<path fill="none" stroke="#4488ff" stroke-width="2" d="M671.74,-166.24C710.86,-156.96 757,-146 757,-146 757,-146 768.76,-134.24 780.64,-122.36"/>
<polygon fill="#4488ff" stroke="#4488ff" stroke-width="2" points="783.35,-124.6 787.94,-115.06 778.4,-119.65 783.35,-124.6"/>
</g>
<!-- OUT_STATUS -->
<g id="node44" class="node">
<title>OUT_STATUS</title>
<polygon fill="#003366" stroke="#4488ff" points="924,-115 864,-115 864,-79 924,-79 924,-115"/>
<text text-anchor="middle" x="894" y="-100" font-family="Arial" font-size="10.00" fill="#ffffff">/gc/status</text>
<text text-anchor="middle" x="894" y="-89" font-family="Arial" font-size="10.00" fill="#ffffff">JSON</text>
</g>
<!-- ST_BELIEF&#45;&gt;OUT_STATUS -->
<g id="edge89" class="edge">
<title>ST_BELIEF&#45;&gt;OUT_STATUS</title>
<path fill="none" stroke="#4488ff" stroke-width="1.5" d="M671.62,-171.47C740.98,-161.73 853,-146 853,-146 853,-146 862.85,-134.46 872.9,-122.7"/>
<polygon fill="#4488ff" stroke="#4488ff" stroke-width="1.5" points="875.6,-124.94 879.43,-115.06 870.27,-120.39 875.6,-124.94"/>
</g>
<!-- OUT_MANIFEST -->
<g id="node45" class="node">
<title>OUT_MANIFEST</title>
<polygon fill="#003366" stroke="#4488ff" points="246,-115 138,-115 138,-79 246,-79 246,-115"/>
<text text-anchor="middle" x="192" y="-100" font-family="Arial" font-size="10.00" fill="#ffffff">/gc/runtime_manifest</text>
<text text-anchor="middle" x="192" y="-89" font-family="Arial" font-size="10.00" fill="#ffffff">JSON</text>
</g>
<!-- ST_BELIEF&#45;&gt;OUT_MANIFEST -->
<g id="edge90" class="edge">
<title>ST_BELIEF&#45;&gt;OUT_MANIFEST</title>
<path fill="none" stroke="#4488ff" stroke-width="1.5" d="M573.57,-161.91C562.14,-157.52 553,-154 553,-154 553,-154 257,-146 257,-146 257,-146 239.85,-133.34 223.17,-121.02"/>
<polygon fill="#4488ff" stroke="#4488ff" stroke-width="1.5" points="225.22,-118.18 215.1,-115.06 221.06,-123.81 225.22,-118.18"/>
</g>
<!-- OUT_CERT -->
<g id="node46" class="node">
<title>OUT_CERT</title>
<polygon fill="#003366" stroke="#4488ff" points="344,-115 268,-115 268,-79 344,-79 344,-115"/>
<text text-anchor="middle" x="306" y="-100" font-family="Arial" font-size="10.00" fill="#ffffff">/gc/certificate</text>
<text text-anchor="middle" x="306" y="-89" font-family="Arial" font-size="10.00" fill="#ffffff">JSON</text>
</g>
<!-- ST_BELIEF&#45;&gt;OUT_CERT -->
<g id="edge91" class="edge">
<title>ST_BELIEF&#45;&gt;OUT_CERT</title>
<path fill="none" stroke="#4488ff" stroke-width="1.5" d="M573.57,-161.91C562.14,-157.52 553,-154 553,-154 553,-154 355,-146 355,-146 355,-146 343,-134.24 330.87,-122.36"/>
<polygon fill="#4488ff" stroke="#4488ff" stroke-width="1.5" points="333.01,-119.56 323.41,-115.06 328.11,-124.56 333.01,-119.56"/>
</g>
<!-- OUT_TUM -->
<g id="node47" class="node">
<title>OUT_TUM</title>
<polygon fill="#003366" stroke="#4488ff" points="440,-115 366,-115 366,-79 440,-79 440,-115"/>
<text text-anchor="middle" x="403" y="-100" font-family="Arial" font-size="10.00" fill="#ffffff">Trajectory.txt</text>
<text text-anchor="middle" x="403" y="-89" font-family="Arial" font-size="10.00" fill="#ffffff">TUM Format</text>
</g>
<!-- ST_BELIEF&#45;&gt;OUT_TUM -->
<g id="edge92" class="edge">
<title>ST_BELIEF&#45;&gt;OUT_TUM</title>
<path fill="none" stroke="#4488ff" stroke-width="2" d="M573.57,-161.91C562.14,-157.52 553,-154 553,-154 553,-154 452,-146 452,-146 452,-146 440,-134.24 427.87,-122.36"/>
<polygon fill="#4488ff" stroke="#4488ff" stroke-width="2" points="430.01,-119.56 420.41,-115.06 425.11,-124.56 430.01,-119.56"/>
</g>
<!-- OUT_NPZ -->
<g id="node48" class="node">
<title>OUT_NPZ</title>
<polygon fill="#003366" stroke="#4488ff" points="549.5,-115 462.5,-115 462.5,-79 549.5,-79 549.5,-115"/>
<text text-anchor="middle" x="506" y="-100" font-family="Arial" font-size="10.00" fill="#ffffff">Diagnostics.npz</text>
<text text-anchor="middle" x="506" y="-89" font-family="Arial" font-size="10.00" fill="#ffffff">Per&#45;Scan</text>
</g>
<!-- ST_BELIEF&#45;&gt;OUT_NPZ -->
<g id="edge93" class="edge">
<title>ST_BELIEF&#45;&gt;OUT_NPZ</title>
<path fill="none" stroke="#4488ff" stroke-width="2" d="M588.5,-161.92C574.59,-153.87 561,-146 561,-146 561,-146 547.01,-133.79 533.15,-121.69"/>
<polygon fill="#4488ff" stroke="#4488ff" stroke-width="2" points="535.38,-119 525.55,-115.06 530.78,-124.27 535.38,-119"/>
</g>
<!-- OUT_TF -->
<g id="node49" class="node">
<title>OUT_TF</title>
<polygon fill="#006633" stroke="#44ff88" points="664,-115 572,-115 572,-79 664,-79 664,-115"/>
<text text-anchor="middle" x="618" y="-100" font-family="Arial" font-size="10.00" fill="#ffffff">TF Broadcast</text>
<text text-anchor="middle" x="618" y="-89" font-family="Arial" font-size="10.00" fill="#ffffff">odom→base_link</text>
</g>
<!-- ST_BELIEF&#45;&gt;OUT_TF -->
<g id="edge94" class="edge">
<title>ST_BELIEF&#45;&gt;OUT_TF</title>
<path fill="none" stroke="#44ff88" stroke-width="2" d="M618,-161.82C618,-151.19 618,-137.31 618,-125.2"/>
<polygon fill="#44ff88" stroke="#44ff88" stroke-width="2" points="621.5,-125.15 618,-115.15 614.5,-125.15 621.5,-125.15"/>
</g>
<!-- ST_MAP&#45;&gt;ST_PROC -->
<!-- ST_PROC&#45;&gt;ST_MEAS -->
<!-- ST_MEAS&#45;&gt;ST_BUCKET -->
<!-- OUT_STATE&#45;&gt;OUT_TRAJ -->
<!-- OUT_TRAJ&#45;&gt;OUT_STATUS -->
<!-- OUT_STATUS&#45;&gt;OUT_MANIFEST -->
<!-- OUT_STATUS&#45;&gt;WIRING -->
<g id="edge96" class="edge">
<title>OUT_STATUS&#45;&gt;WIRING</title>
<path fill="none" stroke="#aa00aa" stroke-width="1.5" d="M894,-78.91C894,-69.34 894,-57.18 894,-46.32"/>
<polygon fill="#aa00aa" stroke="#aa00aa" stroke-width="1.5" points="897.5,-46.04 894,-36.04 890.5,-46.04 897.5,-46.04"/>
</g>
<!-- OUT_MANIFEST&#45;&gt;OUT_CERT -->
<!-- OUT_MANIFEST&#45;&gt;WIRING -->
<g id="edge97" class="edge">
<title>OUT_MANIFEST&#45;&gt;WIRING</title>
<path fill="none" stroke="#aa00aa" stroke-width="1.5" d="M236.43,-78.91C247.86,-74.52 257,-71 257,-71 257,-71 664.99,-37.7 827.94,-24.39"/>
<polygon fill="#aa00aa" stroke="#aa00aa" stroke-width="1.5" points="828.63,-27.85 838.31,-23.55 828.06,-20.87 828.63,-27.85"/>
</g>
<!-- OUT_TUM&#45;&gt;OUT_NPZ -->
<!-- OUT_NPZ&#45;&gt;OUT_TF -->
<!-- L1 -->
<g id="node51" class="node">
<title>L1</title>
<polygon fill="#0f3d0f" stroke="#00ff00" points="1050,-435 992,-435 992,-399 1050,-399 1050,-435"/>
<text text-anchor="middle" x="1021" y="-414.5" font-family="Arial" font-size="10.00" fill="#ffffff">Active</text>
</g>
<!-- L2 -->
<g id="node52" class="node">
<title>L2</title>
<polygon fill="#2a0e0e" stroke="#ff4444" stroke-dasharray="5,2" points="1050,-356 992,-356 992,-320 1050,-320 1050,-356"/>
<text text-anchor="middle" x="1021" y="-335.5" font-family="Arial" font-size="10.00" fill="#ffcccc">Unused</text>
</g>
<!-- L1&#45;&gt;L2 -->
<!-- L3 -->
<g id="node53" class="node">
<title>L3</title>
<polygon fill="#333333" stroke="#aaaaaa" points="1050,-277 992,-277 992,-241 1050,-241 1050,-277"/>
<text text-anchor="middle" x="1021" y="-256.5" font-family="Arial" font-size="10.00" fill="#ffffff">Pipeline</text>
</g>
<!-- L2&#45;&gt;L3 -->
<!-- L4 -->
<g id="node54" class="node">
<title>L4</title>
<polygon fill="#1e1e1e" stroke="#666666" points="1050,-198 992,-198 992,-162 1050,-162 1050,-198"/>
<text text-anchor="middle" x="1021" y="-177.5" font-family="Arial" font-size="10.00" fill="#ffffff">State</text>
</g>
<!-- L3&#45;&gt;L4 -->
<!-- L5 -->
<g id="node55" class="node">
<title>L5</title>
<polygon fill="#003366" stroke="#4488ff" points="1050,-115 992,-115 992,-79 1050,-79 1050,-115"/>
<text text-anchor="middle" x="1021" y="-94.5" font-family="Arial" font-size="10.00" fill="#ffffff">Output</text>
</g>
<!-- L4&#45;&gt;L5 -->
<!-- L6 -->
<g id="node56" class="node">
<title>L6</title>
<polygon fill="#2d004d" stroke="#aa00aa" points="1050,-36 992,-36 992,0 1050,0 1050,-36"/>
<text text-anchor="middle" x="1021" y="-15.5" font-family="Arial" font-size="10.00" fill="#ffffff">Audit</text>
</g>
<!-- L5&#45;&gt;L6 -->
</g>
</svg>
